<svg xmlns="http://www.w3.org/2000/svg" width="224" height="56" viewBox="0 0 224 56">
  <g transform="translate(0,0)">
    <polygon points="28,4 35,18 52,20 40,32 43,50 28,42 13,50 16,32 4,20 21,18" fill="#cf2f2f" stroke="#151515" stroke-width="3"/>
    <circle cx="28" cy="28" r="6" fill="#fff"/>
  </g>
  <g transform="translate(56,0)">
    <polygon points="28,4 36,16 52,20 39,32 42,49 28,42 14,49 17,32 4,20 20,16" fill="#b91f1f" stroke="#151515" stroke-width="3"/>
    <circle cx="28" cy="28" r="7" fill="#ffe2e2"/>
  </g>
  <g transform="translate(112,0)">
    <polygon points="28,5 34,18 51,20 40,31 43,49 28,41 13,49 16,31 5,20 22,18" fill="#df4f4f" stroke="#151515" stroke-width="3"/>
    <circle cx="28" cy="28" r="6" fill="#fff"/>
  </g>
  <g transform="translate(168,0)">
    <polygon points="28,4 35,18 52,20 40,32 43,50 28,42 13,50 16,32 4,20 21,18" fill="#a31515" stroke="#151515" stroke-width="3"/>
    <circle cx="28" cy="28" r="6" fill="#ffe2e2"/>
  </g>
</svg>
