<svg xmlns="http://www.w3.org/2000/svg" width="192" height="48" viewBox="0 0 192 48">
  <!-- Transparent background spritesheet: 4 frames x 48 -->

  <!-- frame 0: red hwatu bloom -->
  <g transform="translate(0,0)">
    <circle cx="24" cy="24" r="16" fill="#cf2f2f" fill-opacity="0.18"/>
    <path d="M24 8 L28 18 L40 20 L31 28 L34 40 L24 33 L14 40 L17 28 L8 20 L20 18 Z" fill="#cf2f2f" stroke="#111" stroke-width="2"/>
    <circle cx="24" cy="24" r="4" fill="#ffeec0"/>
  </g>

  <!-- frame 1: green leaf burst -->
  <g transform="translate(48,0)">
    <circle cx="24" cy="24" r="16" fill="#2f8a57" fill-opacity="0.18"/>
    <path d="M24 7 L29 18 L41 20 L32 28 L35 40 L24 34 L13 40 L16 28 L7 20 L19 18 Z" fill="#2f8a57" stroke="#111" stroke-width="2"/>
    <circle cx="24" cy="24" r="4" fill="#f4ffd7"/>
  </g>

  <!-- frame 2: golden coin burst -->
  <g transform="translate(96,0)">
    <circle cx="24" cy="24" r="16" fill="#e5b54d" fill-opacity="0.2"/>
    <path d="M24 8 L28 18 L40 20 L31 28 L34 40 L24 33 L14 40 L17 28 L8 20 L20 18 Z" fill="#e5b54d" stroke="#111" stroke-width="2"/>
    <circle cx="24" cy="24" r="4" fill="#fff6d9"/>
  </g>

  <!-- frame 3: blue impact sigil -->
  <g transform="translate(144,0)">
    <circle cx="24" cy="24" r="16" fill="#1160bb" fill-opacity="0.18"/>
    <path d="M24 7 L30 18 L41 20 L32 28 L35 40 L24 34 L13 40 L16 28 L7 20 L18 18 Z" fill="#1160bb" stroke="#111" stroke-width="2"/>
    <circle cx="24" cy="24" r="4" fill="#dff1ff"/>
  </g>
</svg>
